# xmcd
# 
# Track frame offsets:
#     150
#     54224
#     106388
#     147630
#     174274
# 
# Disc length: 2637
# 
# Revision: 1
# Processed by: cddbd v1.5.2PL0 Copyright (c) Steve Scherf et al.
# Submitted via: BonkEnc v1.0.6
# 
DISCID=3d0a4b05
DTITLE=Charles Lloyd - Dream Weaver
DYEAR=1966
DGENRE=Jazz
TTITLE0=Autumn Sequence
TTITLE1=Dream Weaver
TTITLE2=Bird Flight
TTITLE3=Love Ship
TTITLE4=Sombrero Sam
EXTD=
EXTT0=
EXTT1=
EXTT2=
EXTT3=
EXTT4=
PLAYORDER=
